<?xml version="1.0" encoding="utf-8"?>
<!-- Generator: Adobe Illustrator 18.0.0, SVG Export Plug-In . SVG Version: 6.00 Build 0)  -->
<!DOCTYPE svg PUBLIC "-//W3C//DTD SVG 1.1//EN" "http://www.w3.org/Graphics/SVG/1.1/DTD/svg11.dtd">
<svg version="1.1" id="Слой_1" xmlns="http://www.w3.org/2000/svg" xmlns:xlink="http://www.w3.org/1999/xlink" x="0px" y="0px"
	 viewBox="0 0 768 795.9" enable-background="new 0 0 768 795.9" xml:space="preserve">
<path fill="#808080"      d="
	M412.7,793.5l7.3,1.7c-7.1,0.4-14.2,0.7-21.4,0.7C180.7,795.9,4,619.4,4,401.5c0-93.9,32.8-179.2,87.6-247l0.2,5.8h3.7l3.6-6.7
	l7.7-6l2.7-4.7l4.5-6.9l1.4,3.6l2.2,3.2l-0.9,3.2l-6.4,8.1l-4.2,5.4l-2.9,9.5l-3.7,6.3l-6.7,4.4v5.5l-3,5l-1.9,5.9l-2.1,5.4
	l-2.6,4.1l-3.6,6.3l-2.2,10.4l-3.6,7.2l-4.1,8.1l-3.2,10l-0.5,6.8l-0.5,5.4l-2.8,4.5l-3.3,5.9l-7.4,17.2l-5,14.5l-7.3,18.7v13V346
	l3.2,7.7l3.1,10l1.3,9l-3.3,5.6v4.3v5.4v6.4l4,6.7l1.9,11l3.9,8.5v15.2v12.9l5.2,8.1l3.7,8.1l3.6,8.6l4.1,5.9l1.8,5.9l5,2.7l3.2,4.1
	l4.5,1.4l-4.5-10l-5.5-12.7l-3.7-11.3l-1.9-6.8l-2-9.5l-2.3-7.2l-4.8-6.8v-7.6v-6.5l3.6,3.6l2.3,7.7l1.7,7.1v7.4l2.9,10l3.5,10
	l4.2,11.3l5,10.4l3.7,8.1l2.7,6.8l2.7,8.1l4.5,8.6l4.1,4.1l5.4,5.4l3.2,3.2l6.3,7.7l3.6,5.9l4.5,5.9l6.3,4.1l7.7,2.8l6.8,2l6.8,1.9
	l5.9,3.2h9c0,0,5.9,6.3,7.2,7.2s7.2,3.4,7.2,3.4l9,4.8c0,0,6.3,0.4,8.6,0.4c2.3,0,3.2,1.3,3.2,1.3l4.5,4.1l5.4,5.9l6.3,8.1l5.4,5
	l4.5,4.5l5,1.8l5.9,3.6l1.8,3.2l5.4-1.4l4.1,1.4l4.5,4.5l2.7,1.8l3.2-1.4l3.2-4.1l1.4-4.1l2.7,1.8l8.1,7.7l2.7,3.6l0.9,5.4l3.1,4.5
	l0.8,5l0.2,6.3l-2.3,2.7l-3.6,4.9v3.3l-0.3,3.2l-1,4.5l2.4,8.6l5.5,8.1l0.9,4.5l2.3,5.4l2.7,6.8l5,2.7l5.9,3.6l1.8,2.7l5.4,5.4
	l8.6,8.1l6.8,4.5l9,5.9l9.5,4.5l8.6,1.8l5.9,3.6l5.4,5l6.8,3.2l6.8,5l5.9,7.2l4.1,5.4l2.7,4.5l4.2,5.9l5.3,5.4l6.8,4.1L412.7,793.5z
	 M753.3,269.9v5.4l5.4,5.6l-3,3.6l-3-4.1l-6.5-4.5l-6.5-2.3l-2.2-4.1l-2.1-6.3l-2.1-8.1l-7.1-10.9l-2.3,5l-2.4,3.2l-4.3,4.1l-5.9,5
	l-3.5,9v5.9l-2,5.9l-3.4,2.3l-6.2,2.2l-3.1,4.5c0,0-4.5,9.5,0,20.8c0,0-6.7,15.8-2,18.5c4.7,2.7,1.5,13.1,1.5,13.1l3.5,6.3l-3.4,3.6
	c0,0-11.2,10.4-7,21.7L685,384v7.3l-2.2,9.1v5v8.7l2.2,12v5.3l4.5,5.5l-0.7,6.3l0.6,5.9l1.4,5.4l-2.3,4.1l-1.1,5l1.9,6.8l-2.1,7.2v8
	l-1.1,4.2v5.5l5.7,3.5l3.8,5.9l0.6,5.4l4.1,4.5l4.1,2.7l0.9,6.4l0.9,6.4l5,5.6l2.3,6.6l7.2,7h5.5l5.9-7.3l4.5-9.2l4.1-6.5l0.4-4.1
	l5.1-0.5l6.1-6.4l4.9-2.7l2.6,6.8l-2,9l-7.5,13.1l-4.6,8.1v8.3l-1.4,12.6l-4.3,11.3l-3.9,8.1l-5.4,12.7l-5.4,8.1l-4.5,8.1l-5,6.3
	l-4.5,4.5l-3.6,7.7l-5,7.7l-5.9,7.7l-0.6,7.1C634.4,731.1,547.8,779.8,450,792.6l0.7-3.2l3.2-4l4.5-1.4h5l4.1-6.3l5.4-7.4l5.9-8.7
	l4.5-5.9l5-2.7l6.8-4.5l4.5-6.3l4-4.5l3.1-2.7l3-8.1l-1.4-7.7l4.5-8.7v-6.7l5.4-6.3h3.2l4.1-5.7l3.2-6.3l1.8-2.9l4.5-5.5l1.4-7.3
	l1.8-5.4l-3.6-4.5l-5-5l-5.9-3.5l-7.7-2.3l-5.4-0.9l-9,3.4l-10.4-2.2l-7.2-2.2l-5.8-0.7h-6.4l-6.3-0.6l-5.9,2.5l-6.3,5.7h-4.9
	l-4.1-4.3l0.4-7.2l1-2.5v-7.6v-4.6l-2.8-2.8l-4.4-4l-2.6-3.8h-4.4l-7.5-2.2h-9.8h-6.5h-4.2l-4.6-5.2l-5.3-4.8l-7.4-4.3l-7.9-1.9
	l-3.2-5l-6.3-5.9v-6.5v-4.3l-4.5,2.3l-1.2,2.7l-7.1-0.9l-5.4-1.8l-6.3,2.3l-6.3,4.1l-6.4,1.8l-4.6-0.9l-1-5l-2.5-3.2l-4.1,5
	l-4.9,0.2v-4.7l-0.3-5l-2-0.9l-1.8,2.7l-1,4.5l-2.3,6.3c0,4.5-4.6,6.8-4.6,6.8v-5.9l0.3-6.8l0-6.3l-3,0.5l-3.6,3.2l-2.2,4.5
	l-9.5,5.9l-4.5,4.6l-3.2,3.4l0.9,5l-0.1,5.9H272l-5.9-3.7l-7.2,3.7h-6.8l-5.5-3.2l-5.2-5.2l-3.1-4.7l-4.7-4.6l-5-4.1l-2.2-3.2v-10
	l0.4-7.7l-0.4-4h-8.7h-7.2l-5.9-3.4l-5-3.1l-2.3-20l-0.9-15.4l0.5-5.5l-6.3-3.6l-6.3,0.9l-4.5,2.7l-3.2,7.2l-1.8,6.8l-0.5,2.7
	l-3.6,5l-3.6,1.8l-5.4-2.3l-4.1-5.9l-7.3-6.3l-5.1-7.7l-3.8-6.8l-3.2-7.7l-6.1-4.4v-6.5v-11.2l2.2-6.1v-9.8v-7.2l4.6-5.4l6.2-4.1
	l6.8-1.4l7.6-1.4l7.2,1.8l7.7,2.4v-4.3v-5.8l7.4-2.7l9.4,1.8l3.6,1.8l5.2,1.8l3.6,1.8l3.9,4.5l3.1,1.4L210,451v4.5l4,6.7l4.7,9.5
	l4.3,6.3h4.3h4.8l0.5-5l-1.4-8.3l-1.8-6.9l-1.8-5l-4.5-7.3l-1.4-10l1.4-4.2l4.5-9l4.1-9.1l1.4-4.5l4.1-4.5l2.3-3.3l5.4-8.9l2.3-10.8
	l0.9-5.8l-2.3-6.2l-3.6-3.9l-1.8-2.7l0.1-2.9h4.9l5.9-3.8l2.2-4.4l1.1-4.9V341l4.3-2.9h4.3h4.3h4.1l4-5.1l-0.5-6.8v-6.9l3.2-6.8
	l5.2-4.2l10.1-8.9c1.8-3.6,4.1-4.4,4.1-4.4l-0.9,6.5l2.3,4.6l1,4.9h3.1l3.2-5.1l3.2-4.4l3.6-4.7l5.9-4.6l5.9-3.2l4.1-4.1
	c3.6-2.7,1.8-4.7,1.8-4.7l-2.7-6.9l-3.2-1.2l-3.6,4.6l-0.6,6.1h-4.8l-7.2-3l-4.5-3.2l-2.7-7.4l3.2-3.7l1.4-3.7l1.8-2.7l5.9-0.9
	c5.4,0,6.3-5.4,6.3-5.4l-7.3,0.5l-7.7,2.3l-5.5,0.5l-5.5,2.3l-6.5,5.4l-4.1,3.6l-6,5.8v-4.5l1.9-5.7l8.8-7l4.2-2.7l6.8-1.8h7.6h6.1
	l2.5-4.3h7l4.5-6.1l6.4-7l3.8-0.5l6.7-1.7l4.3-0.4c1.8-4.1-5.4-12-5.4-12l-3.2-9.1l-6.4-6.3c0,0-5.8-3.2-6.3-4.5s-8.2-6.8-8.2-6.8
	c-0.5-5.9-3.6-6.8-4.1-10.4s-4.1-10-4.1-10c-3.2-10.9-8.6-9-8.6-9l-2.4,3.2l-2.5,4.5l-6.4,3.2c-2.7,3.2-6.7-0.7-6.7-0.7v-9.2
	c7.6-1.8,5.4-6.8,5.4-6.8l-7.5-2.3l-7.1-5.1c-3.6-4.2-12.2-1.7-12.2-1.7l-5.6,1.7l-3.3,5.1l-2.3,5.4l0.9,4.5l-1.4,10.9l0.4,8.6
	l2.7,6.8l-1.4,7.2l-2.8,4.5l-2.5,5.4l-9.5,5.4l-3.7,7.2v10l0.3,4.5c-1.8,3.6-3.6,3.6-3.6,3.6L227,233l2.3-14.4l-3.1-5.3l-6.8-4.8
	l-5.9-4.9l-5.7-5.2h-7.4l-5.6-4.6l0.2-12.5c-1.8-10.9,11.3-18.2,11.3-18.2c1.8-3.6,6.3-5.5,6.3-5.5l5.9-4.6l4.1-2.8l2.3-5.8l4.5-4.5
	l5.4-1.4l2.3,4.5l3.2,2.3l5.4-1.8l8.6-3.6l1.4-5.4l-2.3-9c-4.1,0-1.8-4.5-1.8-4.5l6.7-3.6l6.9-4.1l5-7.2l0.9-5.4l2.3-5.9l6.8-1.9
	l2.7,5.1l-0.5,5.5l-1.8,2.7l4.5,4.1l-5.4,8.6l-3.2,4.5l-4.5,1.8l-5,3.2l0.9,3.2l4.1,2.3l5.4,1.4l2.7,4.6l1.8,5.6l4.1,2.8l5.4,4.9
	h7.3l7.2,1.5l0.9-3.8l-5.4-5.4l-3.2-4.3l1.8-1.9l4.4,4.1h3.8l0.9-6.4l-2.5-8.8h-3.4l-4.1-4.4l0.9-3.2h3.6l3.2,3.4l4.1,4.2h2.2
	l2.3-4.5l-0.5-8.7l1.8-2.8l1.8-2.3l-5.9-5.9l-5.9-5l-4.6-2.7l0.4-5.9l3.9-5.5l-2.8-5.2l-6.8-4.6v-5.1l-6.1-3.2l-10-0.5l-6.8,1.4
	l-8.7-2.3l-7.2,1.4l-4.5-3.7v-6.3l-3.4,0.5l-5,5.4l-6.7,3.2l-5,1.4l-5.5,4.7l-2,4.4l-4.6,3.3l-8,5.2v2.4l-2.1,3.2l-2.9-3.2l-2.9-4.1
	l-4.7-3.5l-2.5-2l4.5-3.2l4-4.1l3.2-3v-4.7l-3.9-2.5l-2.4-2c57.4-32.6,124-51.1,194.7-51.1c36.3,0,71.6,5.1,105,14.3l-2.9,1.8
	l-10.1,3h-5l-4.6-2l-2.5,2.1l-4.9,1.2l-5.3,1.2v2.9l5.2,3l7.5,2.7l5,2.7l1.4,4.2l4.6,2.6l4.5,0.5l7.7,2.7l7.7,3.2l5,5.9l5.9,3.2
	l5.4,0.5l5.9,4.1l6.3,6.8l4.5,6.1l6.3,5.4l4.5,5.6l5.9,4.9h6.4h3.3l4.8,4.9l5.9,7l5.5,3.3h5.4l0.8-5.1l-0.9-3.8l1.4-5.1l4.1,0.4
	l1.8,6.3l-0.5,6.8l2.7,3.2l7.6,3.6l3.9,3.2l4.7,3.2l3.8,3.6v4.5l0.7,7.3l1.3,4.1l2.3,3.2l5.4,4.4v7l4.3,6.2v6.9l-2.1,7.2l-3.4,5.9
	v7.6h7.6l3.7,3.3h5h6.5l2.1,4.7l2.5,6.7l4.7,5.9l2.3,10.3l-8.6,4.9h-5.1l-3,2.8l-0.5,3.9l3.6,6.2l4.1,9l5.9,6.8l5.4,7.7l2.7,8.2
	l1.8,6.5l3.6,5.7l5.9,3.8h7.3l6.8-5.4l3.6-8.8l0.5-7.1v-2.6l-1.4-2.8l3.9-5.4l-1.7-4.5l-3.1-4.5l-2.2-5.9l-0.9-6.3l-0.4-10.9
	l-3.2-2.3l-3.2-1.8l1.4-6.3l3.6-2.7l0.5-5l-0.5-3.6l2.7-1.8l3.2,2.7l4.1,5.4l7.2,3.2l5.4,3.6l4.5,5l5,7.2l4.5,5.4l4.5-0.5l-2.3-6.3
	l-5.1-10.4l5.2,4.5l3.1,5.9l3.2,4.5v4.3l3.9,0.6l2.6-6.3v-7.3v-6.6c8.7,14.5,17.5,31.6,23.4,47.8h-5h-3.3l-5.4,0.5V269.9z
	 M235.4,463.4l4.5,7h4.8l2.2-3.1V464l-2.8-1.3l-3.4-0.8h-2.5L235.4,463.4z M245.2,479.1h-3.8l-3.1-0.9l-2.4,0.9v3.2l2.7,3.3l3.2,3.3
	h4.9V485v-2.6L245.2,479.1z M261,532.3l-1.7-3.5l-6.5-0.8l-3.4,0.8l-2.5,3.5v2.2l3.8,4.3h6h3.3l1.1-4.1V532.3z M274,521.4l3.3-4.9
	l-2.6-2.1l-4.2-0.8l-2.6-2l-2.9-1.6l-3.5-2.7l-6.4-1.9l-5.1-1.6l-2.6-3.6l-2.6-3.1l-5.8-1.4l-6.4-1.6h-8.6h-7.6l-6.7,2.4l-3.9,3.3
	l-3.5,1.7v2.4l3.5,2.1l5.7-2.7l5.7-1.6h4.6l5.3,3.3h3.4l9.1,3.7l4.5,2.7l4.2,3.1l5.4,4.1l2.2,2.6h3.8l4.5-1.8l5.4,1.8H274z
	 M306.8,521.7c-4.2,0.1-6.4-1-6.4-1l-4.5-2.5h-6.7c0,0-4.1-1.3-6.3-0.8c0,0-8.9-0.5-4.5,4.1v3.3l-1.9,3l-1.7,2.6l2.7,3h5.2h7.6h5.4
	l5.3-5.4h4.5l3.9-2.4C309.3,525.5,310.9,521.6,306.8,521.7z M326.1,527.9l-1.5-1.5l-1.7-0.7h-6.5v3.3l4.9,4.3h4.9V527.9z
	 M351.2,530.3l-1.1-1.3l-3.5-1.1h-2.1l-4.3-2.2v3.3l4.3,2.7L351.2,530.3z M356.4,543.1h3.3l-1.6-2.4l-2.5-1.9h-2.4l-1.7,1.9l2.5,2.4
	H356.4z M364.7,561.6l-3.2-2.9l-3.9,1.3v4.8h6.5L364.7,561.6z M364.8,552.4l-1.9-2.8h-3.2l-2.4,2.8l2.4,2.6h3.3L364.8,552.4z
	 M365.1,261.2l-2.4-3.5l-3.6-3.8l0.5-3.2l-0.6-3.8l-1.2-2.2l-2.9-0.3l-5.6-1.5l-1.7-1.8l-0.6-2.6h-3.4l-3-1.9l-3.5,1.9v5.4
	c0,0,1.4,5.5-3,10l-2.4,4.8v5.8c0,0-2.2,6.5,0,6.5h5.4c0,0,4.2-9.1,12.2-5.2l3.8,3.3l3.8,1.9h7.2l1.1-3.3V261.2z M376,564.8
	l-3.2-3.4l-0.7,3.1l1.6,4.6h2.2V564.8z M343,32.4l0.4-2.2h7.3l5.4-1.3l4.5,1.2l9-0.6l9.5,0.8l9.5,0.4l8.3-1.4l6.6-4.9l-15.8-1.9
	l-4.1,1.8L371,25.3L352.9,23l-6.3-3l-5.4-1l-5,1.8l-3.6,6.2h-6.3l-9,6.2l-5,1.5l-7.7,2.6l-10,5.4l-10,3.2
	c-12.2-0.5-9.5,7.7-13.1,6.8s-7.7,6.4-9,6.4c-1.4,0,12.7,4.7,12.7,4.7l3.2-2h9.9l12.1-1.5l8.5-8l3.8,0.3l3.5-3.9v1.9l5.4-1.9v3.5
	l2.2,5.2v4.1l3.2,7.7l6.1,5.9l-3.1,4.2l2.6,6.2c10.9,2.7,2.1,13.1,2.1,13.1v7.3l4.1,5l4.8,11.8c0,0,8.7,11.8,11,15.5
	s15.9,9.7,15.9,9.7l5.4,3.9h4.4c6.6,0,5.6-5.1,5.6-5.1c-2.7-5.9-0.5-42.3-0.5-42.3l7.7-7.4c-3.1-2.3-3-7.3-0.7-6.9
	c2.4,0.5,9.5-13.2,9.5-13.2v-6.5h-0.6c2.3-9.8-12-10.7-12-10.7c0.5-5.9-9.2-7.7-9.2-7.7l2.7-4l-3.2-3.7c0,0-8.6,0.4-10-2.7
	s-8.6-4.1-8.6-4.1l-10-2.9L343,32.4z M500.4,93.3l-3.2-2.9l-2.3-3.6l-9-5.4c0,0-6.9-4.7-10,0c0,0-0.9,2.7,0,5.4c0,0-9.5-2.7-10.9,0
	c0,0-9.5,4.1,2.3,6.8c0,0,5,6.8,8.6,6.8c0,0,0.5,4.5,9.5,5C485.5,105.3,502.2,109.4,500.4,93.3z M632.1,160l-2.2-4.4
	c0,0-5.4-0.5-5.8-5l-1.9-3.3h-3.3l-2.8-4.8l-3.5-2.8l-3.6-1.9l-6.4-4l-6.4-3.6l-2.6-3.6l-5.1-3.5l-7-4.5l-5.1-2.2l-4.2-1.6
	c0,0-5.8-5.1-6.4,3.8l-2.9,3.2l1.3,3.6l4.8,1.9l8.9,3.8l2.7,2.6l0.4,8v4.6l1.4,5.5l-0.1,5.9l3.7,3.8h4.8l4,3.9l3.5,3.1l1.3,5.1
	l4.2,2h2.3l1.3-5.1c0,0,8-8.6,10.6,0.4c0,0-1.9,4,0,4.4c1.9,0.3,5.1,2.5,5.1,2.5l4.2-2l3.5-7.1C630.5,168.6,635.3,166.1,632.1,160z"
	/>
</svg>
